<?xml version="1.0" encoding="UTF-8"?>
<!DOCTYPE svg PUBLIC "-//W3C//DTD SVG 1.1//EN" "http://www.w3.org/Graphics/SVG/1.1/DTD/svg11.dtd">
<svg xmlns="http://www.w3.org/2000/svg" version="1.1" width="320px" height="240px" style="shape-rendering:geometricPrecision; text-rendering:geometricPrecision; image-rendering:optimizeQuality; fill-rule:evenodd; clip-rule:evenodd" xmlns:xlink="http://www.w3.org/1999/xlink">
<g><path style="opacity:1" fill="#050706" d="M -0.5,-0.5 C 106.167,-0.5 212.833,-0.5 319.5,-0.5C 319.5,79.5 319.5,159.5 319.5,239.5C 212.833,239.5 106.167,239.5 -0.5,239.5C -0.5,159.5 -0.5,79.5 -0.5,-0.5 Z"/></g>
<g><path style="opacity:1" fill="#dbd4c9" d="M 118.5,43.5 C 118.565,43.9382 118.399,44.2716 118,44.5C 117.768,43.2625 117.268,42.2625 116.5,41.5C 136.608,19.1455 158.941,16.6455 183.5,34C 189.791,38.2868 194.625,43.7868 198,50.5C 198.897,58.9537 200.397,67.2871 202.5,75.5C 226.517,81.3509 241.351,96.3509 247,120.5C 247.638,134.068 243.138,145.735 233.5,155.5C 234.912,156.806 236.579,157.64 238.5,158C 243.489,158.499 248.489,158.666 253.5,158.5C 253.986,161.755 252.986,164.422 250.5,166.5C 240.22,172.146 229.22,173.98 217.5,172C 215.754,171.529 214.087,170.862 212.5,170C 222.599,171.16 232.599,170.494 242.5,168C 245.576,167.089 247.909,165.256 249.5,162.5C 243.412,161.791 237.412,160.624 231.5,159C 230.09,158.632 229.09,157.799 228.5,156.5C 246.775,137.891 248.275,117.891 233,96.5C 225.155,88.3142 215.989,82.1475 205.5,78C 204.056,77.2195 202.723,77.3861 201.5,78.5C 197.046,87.1374 190.379,92.9707 181.5,96C 187,91.8333 191.833,87 196,81.5C 199.564,74.5977 199.231,67.931 195,61.5C 190.5,55.6667 185.333,50.5 179.5,46C 184.932,48.3343 189.766,51.8343 194,56.5C 194.667,54.1667 194.667,51.8333 194,49.5C 184.052,35.3525 170.386,27.3525 153,25.5C 139.167,27.1654 127.667,33.1654 118.5,43.5 Z"/></g>
<g><path style="opacity:1" fill="#e9e0d2" d="M 116.5,41.5 C 117.268,42.2625 117.768,43.2625 118,44.5C 118.399,44.2716 118.565,43.9382 118.5,43.5C 138.09,42.1382 155.09,47.9715 169.5,61C 168.391,61.6377 167.225,62.1377 166,62.5C 157.482,59.8538 148.982,59.8538 140.5,62.5C 139.167,62.8333 137.833,63.1667 136.5,63.5C 135.71,62.3915 135.21,61.0581 135,59.5C 134.153,61.1932 133.32,62.8599 132.5,64.5C 127.031,63.2154 121.697,62.2154 116.5,61.5C 115.5,60.8333 114.5,60.1667 113.5,59.5C 119.091,52.2173 126.425,49.7173 135.5,52C 141.207,53.182 146.874,54.182 152.5,55C 140.739,48.913 128.406,47.2463 115.5,50C 105.159,53.3112 101.326,60.1445 104,70.5C 106.907,76.6442 110.574,82.3108 115,87.5C 117.037,89.7059 119.203,91.7059 121.5,93.5C 126.211,95.7347 130.211,98.9013 133.5,103C 131.331,103.429 129.331,102.929 127.5,101.5C 125.35,103.149 123.35,104.982 121.5,107C 120.275,107.563 119.275,107.23 118.5,106C 120.656,104.01 122.656,101.843 124.5,99.5C 117.546,94.3803 111.379,88.3803 106,81.5C 102.037,76.1103 99.5367,70.1103 98.5,63.5C 98.2952,60.2054 99.1285,57.2054 101,54.5C 105.474,49.1797 110.641,44.8464 116.5,41.5 Z"/></g>
<g><path style="opacity:1" fill="#151615" d="M 113.5,59.5 C 111.37,60.0319 109.37,60.8652 107.5,62C 110.413,61.7097 113.413,61.5431 116.5,61.5C 121.697,62.2154 127.031,63.2154 132.5,64.5C 134.099,64.7678 135.432,64.4345 136.5,63.5C 137.833,63.1667 139.167,62.8333 140.5,62.5C 141.209,63.404 142.209,63.7373 143.5,63.5C 142.003,64.3058 140.336,64.9724 138.5,65.5C 137.212,67.2985 137.212,68.9652 138.5,70.5C 139.476,71.8149 140.476,73.1482 141.5,74.5C 146.456,75.4941 151.456,75.8275 156.5,75.5C 151.833,76.1667 147.167,76.8333 142.5,77.5C 138.405,75.2411 135.072,72.0744 132.5,68C 131.167,67.3333 129.833,67.3333 128.5,68C 126.198,71.6461 123.864,75.3128 121.5,79C 119.102,79.3744 116.769,79.3744 114.5,79C 117.363,83.3479 120.363,87.5146 123.5,91.5C 122.5,91.8333 121.833,92.5 121.5,93.5C 119.203,91.7059 117.037,89.7059 115,87.5C 110.574,82.3108 106.907,76.6442 104,70.5C 101.326,60.1445 105.159,53.3112 115.5,50C 128.406,47.2463 140.739,48.913 152.5,55C 146.874,54.182 141.207,53.182 135.5,52C 126.425,49.7173 119.091,52.2173 113.5,59.5 Z"/></g>
<g><path style="opacity:1" fill="#888782" d="M 113.5,59.5 C 114.5,60.1667 115.5,60.8333 116.5,61.5C 113.413,61.5431 110.413,61.7097 107.5,62C 109.37,60.8652 111.37,60.0319 113.5,59.5 Z"/></g>
<g><path style="opacity:1" fill="#686660" d="M 136.5,63.5 C 135.432,64.4345 134.099,64.7678 132.5,64.5C 133.32,62.8599 134.153,61.1932 135,59.5C 135.21,61.0581 135.71,62.3915 136.5,63.5 Z"/></g>
<g><path style="opacity:1" fill="#141514" d="M 113.5,66.5 C 115.361,67.507 118.028,67.8404 121.5,67.5C 121.511,69.0174 122.177,70.1841 123.5,71C 121.75,72.3186 119.75,72.8186 117.5,72.5C 116.766,71.0707 115.599,70.0707 114,69.5C 112.97,69.8361 112.47,70.5028 112.5,71.5C 112.19,72.7383 111.69,72.7383 111,71.5C 110.5,70 110,68.5 109.5,67C 110.744,64.0658 112.078,63.8991 113.5,66.5 Z"/></g>
<g><path style="opacity:1" fill="#e5ded2" d="M 118.5,64.5 C 120.973,64.0882 122.306,65.0882 122.5,67.5C 122.167,67.5 121.833,67.5 121.5,67.5C 118.028,67.8404 115.361,67.507 113.5,66.5C 115.167,65.8333 116.833,65.1667 118.5,64.5 Z"/></g>
<g><path style="opacity:1" fill="#ebe2d3" d="M 123.5,91.5 C 120.363,87.5146 117.363,83.3479 114.5,79C 116.769,79.3744 119.102,79.3744 121.5,79C 123.864,75.3128 126.198,71.6461 128.5,68C 129.833,67.3333 131.167,67.3333 132.5,68C 135.072,72.0744 138.405,75.2411 142.5,77.5C 149.17,78.9178 155.836,78.7512 162.5,77C 163.333,76.1667 164.167,75.3333 165,74.5C 165.498,71.1832 165.665,67.8499 165.5,64.5C 169.808,63.7353 172.642,65.4019 174,69.5C 175.469,76.5544 173.969,82.8877 169.5,88.5C 164.701,93.128 159.701,97.628 154.5,102C 152.956,103.187 151.289,103.52 149.5,103C 152.377,101.661 154.044,99.8274 154.5,97.5C 148.276,100.185 141.942,100.685 135.5,99C 131.5,97 131.5,95 135.5,93C 137.392,92.0266 139.392,91.3599 141.5,91C 148.53,90.5454 155.53,90.5454 162.5,91C 159.801,88.4902 156.801,86.8235 153.5,86C 154.167,86.6667 154.833,87.3333 155.5,88C 145.748,87.1882 136.748,89.3549 128.5,94.5C 126.577,93.9076 124.911,92.9076 123.5,91.5 Z"/></g>
<g><path style="opacity:1" fill="#91908b" d="M 118.5,64.5 C 116.833,65.1667 115.167,65.8333 113.5,66.5C 112.078,63.8991 110.744,64.0658 109.5,67C 110,68.5 110.5,70 111,71.5C 111.69,72.7383 112.19,72.7383 112.5,71.5C 113.434,72.5676 113.768,73.901 113.5,75.5C 109.821,73.1383 107.987,69.8049 108,65.5C 109.648,63.9716 111.648,63.3049 114,63.5C 115.707,63.5085 117.207,63.8418 118.5,64.5 Z"/></g>
<g><path style="opacity:1" fill="#e7dfd2" d="M 143.5,63.5 C 149.176,63.3339 154.843,63.5006 160.5,64C 161.61,66.7372 161.777,69.5706 161,72.5C 160.082,74.3757 158.582,75.3757 156.5,75.5C 151.456,75.8275 146.456,75.4941 141.5,74.5C 140.476,73.1482 139.476,71.8149 138.5,70.5C 137.212,68.9652 137.212,67.2985 138.5,65.5C 140.336,64.9724 142.003,64.3058 143.5,63.5 Z"/></g>
<g><path style="opacity:1" fill="#1d1e1c" d="M 138.5,70.5 C 140.667,68.4887 143.334,67.3221 146.5,67C 150.779,65.7561 155.112,65.4228 159.5,66C 157.833,66.3333 156.167,66.6667 154.5,67C 154.352,72.4042 151.686,74.4042 146.5,73C 144.816,69.2726 142.149,68.4392 138.5,70.5 Z"/></g>
<g><path style="opacity:1" fill="#97948d" d="M 149.5,67.5 C 150.5,67.5 151.5,67.5 152.5,67.5C 151.754,71.31 150.754,71.31 149.5,67.5 Z"/></g>
<g><path style="opacity:1" fill="#e5ddd0" d="M 117.5,72.5 C 118.833,73.1667 120.167,73.8333 121.5,74.5C 119.162,76.7426 116.496,77.0759 113.5,75.5C 113.768,73.901 113.434,72.5676 112.5,71.5C 112.47,70.5028 112.97,69.8361 114,69.5C 115.599,70.0707 116.766,71.0707 117.5,72.5 Z"/></g>
<g><path style="opacity:1" fill="#5b5b57" d="M 121.5,67.5 C 121.833,67.5 122.167,67.5 122.5,67.5C 125.371,70.2359 125.038,72.5692 121.5,74.5C 120.167,73.8333 118.833,73.1667 117.5,72.5C 119.75,72.8186 121.75,72.3186 123.5,71C 122.177,70.1841 121.511,69.0174 121.5,67.5 Z"/></g>
<g><path style="opacity:1" fill="#b5b4af" d="M 179.5,76.5 C 181.272,80.9369 180.439,84.9369 177,88.5C 178.121,84.6651 178.955,80.6651 179.5,76.5 Z"/></g>
<g><path style="opacity:1" fill="#262625" d="M 131.5,81.5 C 132.239,81.369 132.906,81.5357 133.5,82C 132.534,83.6779 131.201,84.3446 129.5,84C 130.381,83.2917 131.047,82.4584 131.5,81.5 Z"/></g>
<g><path style="opacity:1" fill="#e6ddcf" d="M 203.5,82.5 C 209.696,82.514 214.863,84.8474 219,89.5C 219.483,90.448 219.649,91.448 219.5,92.5C 217.488,93.0138 215.488,93.1805 213.5,93C 210.333,90.5 207.167,88 204,85.5C 203.517,84.552 203.351,83.552 203.5,82.5 Z"/></g>
<g><path style="opacity:1" fill="#4c4c49" d="M 120.5,81.5 C 122.728,82.3218 123.395,83.6552 122.5,85.5C 121.295,84.4231 120.628,83.0898 120.5,81.5 Z"/></g>
<g><path style="opacity:1" fill="#ece2d4" d="M 218.5,94.5 C 223.227,94.0483 227.06,95.715 230,99.5C 232.254,103.007 234.254,106.673 236,110.5C 237.455,115.81 235.455,118.143 230,117.5C 227.648,117.695 225.648,117.028 224,115.5C 222.088,109.176 219.254,103.343 215.5,98C 216.071,96.4009 217.071,95.2342 218.5,94.5 Z"/></g>
<g><path style="opacity:1" fill="#d5d0c6" d="M 198.5,88.5 C 208.62,95.0568 214.453,104.39 216,116.5C 216.818,122.902 216.484,129.235 215,135.5C 212.81,140.668 208.977,143.501 203.5,144C 207,141.833 209.833,139 212,135.5C 215.598,123.758 214.598,112.425 209,101.5C 205.633,97.7974 201.966,94.464 198,91.5C 197.53,90.4232 197.697,89.4232 198.5,88.5 Z"/></g>
<g><path style="opacity:1" fill="#dbd5ca" d="M 159.5,104.5 C 160.239,104.369 160.906,104.536 161.5,105C 155.45,107.932 152.617,112.765 153,119.5C 151.964,116.247 151.297,112.914 151,109.5C 150.25,108.874 149.416,108.374 148.5,108C 152.529,107.584 156.196,106.417 159.5,104.5 Z"/></g>
<g><path style="opacity:1" fill="#ddd6cb" d="M 58.5,108.5 C 83.5087,108.524 108.509,109.024 133.5,110C 136.409,113.374 138.576,117.207 140,121.5C 143.064,131.254 145.897,141.088 148.5,151C 146.836,152.767 145.669,152.267 145,149.5C 141.537,137.079 137.371,124.912 132.5,113C 119.9,111.862 107.233,111.362 94.5,111.5C 82.8333,111.667 71.1667,111.833 59.5,112C 58.9781,112.561 58.6448,113.228 58.5,114C 63.2321,128.624 68.5655,142.957 74.5,157C 75.8333,157.667 77.1667,158.333 78.5,159C 101.173,159.671 123.84,160.504 146.5,161.5C 146.333,161.833 146.167,162.167 146,162.5C 141.247,163.154 136.413,163.487 131.5,163.5C 116.168,162.958 100.835,162.458 85.5,162C 79.2116,162.437 74.045,160.271 70,155.5C 64.4257,141.867 59.5923,128.034 55.5,114C 55.8627,111.808 56.8627,109.974 58.5,108.5 Z"/></g>
<g><path style="opacity:1" fill="#eee4d5" d="M 141.5,153.5 C 141.5,154.5 141.5,155.5 141.5,156.5C 134.833,156.5 128.167,156.5 121.5,156.5C 107.106,156.528 92.773,155.861 78.5,154.5C 72.943,141.384 67.943,128.051 63.5,114.5C 85.5166,114.29 107.517,114.79 129.5,116C 134.605,128.147 138.605,140.647 141.5,153.5 Z"/></g>
<g><path style="opacity:1" fill="#d9d2c6" d="M 174.5,134.5 C 173.972,133.153 173.805,131.819 174,130.5C 176.088,129.692 178.088,128.692 180,127.5C 180.592,124.306 180.426,121.139 179.5,118C 179.642,113.573 181.142,109.74 184,106.5C 183.518,109.76 183.518,113.093 184,116.5C 185.699,113.115 188.199,110.948 191.5,110C 187.066,113.798 185.066,118.631 185.5,124.5C 197.316,125.481 197.316,126.315 185.5,127C 183.33,128.586 180.996,129.92 178.5,131C 181.295,132.036 183.962,133.369 186.5,135C 182.541,134.842 178.541,134.675 174.5,134.5 Z"/></g>
<g><path style="opacity:1" fill="#eae0d2" d="M 228.5,119.5 C 231.777,119.216 234.943,119.549 238,120.5C 238.984,126.705 238.317,132.705 236,138.5C 230.333,142.183 226.666,140.85 225,134.5C 224.333,130.5 224.333,126.5 225,122.5C 226.145,121.364 227.312,120.364 228.5,119.5 Z"/></g>
<g><path style="opacity:1" fill="#191918" d="M 101.5,129.5 C 103.167,129.5 104.833,129.5 106.5,129.5C 107.293,133.213 107.293,136.88 106.5,140.5C 105.144,136.675 103.478,133.009 101.5,129.5 Z"/></g>
<g><path style="opacity:1" fill="#171817" d="M 76.5,130.5 C 79.2919,130.452 81.1253,131.785 82,134.5C 82.9078,132.561 84.4078,131.561 86.5,131.5C 85.9834,135.222 85.15,138.888 84,142.5C 82.5064,143.747 81.0064,143.747 79.5,142.5C 80.311,141.784 80.9777,140.95 81.5,140C 79.6879,136.874 78.0212,133.708 76.5,130.5 Z"/></g>
<g><path style="opacity:1" fill="#161715" d="M 94.5,129.5 C 95.5676,128.566 96.901,128.232 98.5,128.5C 98.412,132.306 99.0787,135.972 100.5,139.5C 97.5541,140.655 94.5541,140.821 91.5,140C 86.5638,134.257 87.8971,131.09 95.5,130.5C 95.3764,129.893 95.0431,129.56 94.5,129.5 Z"/></g>
<g><path style="opacity:1" fill="#1f201e" d="M 110.5,132.5 C 117.833,131.167 120.833,134.167 119.5,141.5C 118.5,141.5 117.5,141.5 116.5,141.5C 116.838,138.843 116.171,136.51 114.5,134.5C 113.943,136.718 113.943,139.051 114.5,141.5C 113.167,141.5 111.833,141.5 110.5,141.5C 110.5,138.5 110.5,135.5 110.5,132.5 Z"/></g>
<g><path style="opacity:1" fill="#171817" d="M 121.5,132.5 C 124.833,132.5 128.167,132.5 131.5,132.5C 131.724,136.204 131.89,139.871 132,143.5C 128.693,146.255 125.526,146.089 122.5,143C 124.657,142.922 126.657,142.755 128.5,142.5C 122.092,141.787 119.759,138.454 121.5,132.5 Z"/></g>
<g><path style="opacity:1" fill="#d7d0c5" d="M 92.5,133.5 C 95.2974,133.967 96.6308,135.633 96.5,138.5C 92.4635,138.718 91.1302,137.051 92.5,133.5 Z"/></g>
<g><path style="opacity:1" fill="#e6ddd0" d="M 174.5,134.5 C 178.475,135.913 181.309,138.579 183,142.5C 184.14,145.528 183.306,147.695 180.5,149C 175.139,147.582 170.139,148.415 165.5,151.5C 163.816,146.704 165.483,143.537 170.5,142C 165.862,142.282 162.528,144.615 160.5,149C 154.084,153.229 152.251,151.729 155,144.5C 157.559,141.469 160.726,139.302 164.5,138C 158.731,137.973 154.231,140.473 151,145.5C 149.56,144.07 149.226,142.403 150,140.5C 156.829,133.365 164.996,131.365 174.5,134.5 Z"/></g>
<g><path style="opacity:1" fill="#dad4c9" d="M 124.5,134.5 C 127.91,134.384 129.244,136.05 128.5,139.5C 124.745,139.437 123.412,137.77 124.5,134.5 Z"/></g>
<g><path style="opacity:1" fill="#ede3d5" d="M 221.5,142.5 C 224.448,142.223 227.281,142.556 230,143.5C 231.094,148.763 229.094,152.43 224,154.5C 219.781,152.458 218.448,149.125 220,144.5C 220.717,143.956 221.217,143.289 221.5,142.5 Z"/></g>
<g><path style="opacity:1" fill="#e9e0d2" d="M 195.5,148.5 C 201.279,147.708 206.446,149.041 211,152.5C 211.79,155.634 211.457,158.634 210,161.5C 209.08,158.062 207.413,155.062 205,152.5C 204.282,151.549 203.449,151.383 202.5,152C 208.743,162.106 206.41,169.606 195.5,174.5C 194.808,173.975 194.308,173.308 194,172.5C 191.743,174.046 189.576,175.712 187.5,177.5C 185.007,171.483 187.007,167.983 193.5,167C 188.33,166.586 184.663,168.753 182.5,173.5C 179.382,174.559 176.382,175.892 173.5,177.5C 172.276,175.102 172.442,172.769 174,170.5C 176.251,168.623 178.751,167.123 181.5,166C 176.409,166.22 172.409,168.553 169.5,173C 166.978,174.341 164.311,175.174 161.5,175.5C 161.491,173.692 161.991,172.025 163,170.5C 171.488,163.139 181.322,159.639 192.5,160C 190.42,159.211 188.586,158.044 187,156.5C 185.422,157.547 183.922,157.547 182.5,156.5C 185.873,152.099 190.207,149.432 195.5,148.5 Z"/></g>
<g><path style="opacity:1" fill="#706f6b" d="M 141.5,153.5 C 142.434,154.568 142.768,155.901 142.5,157.5C 135.313,157.825 128.313,157.491 121.5,156.5C 128.167,156.5 134.833,156.5 141.5,156.5C 141.5,155.5 141.5,154.5 141.5,153.5 Z"/></g>
<g><path style="opacity:1" fill="#e2dbce" d="M 167.5,154.5 C 169.604,154.201 171.604,154.534 173.5,155.5C 172.975,156.192 172.308,156.692 171.5,157C 164.164,158.28 156.83,158.446 149.5,157.5C 155.599,156.259 161.599,155.259 167.5,154.5 Z"/></g>
<g><path style="opacity:1" fill="#ece3d5" d="M 215.5,156.5 C 220.452,158.209 225.452,160.042 230.5,162C 235.104,163.061 239.771,163.727 244.5,164C 236.037,168.013 227.37,168.513 218.5,165.5C 218.657,164.127 218.49,162.793 218,161.5C 216.89,163.037 215.39,163.703 213.5,163.5C 213.166,160.812 213.832,158.479 215.5,156.5 Z"/></g>
<g><path style="opacity:1" fill="#e7dfd1" d="M 88.5,169.5 C 90.1667,169.5 91.8333,169.5 93.5,169.5C 92.7764,173.88 90.1097,175.88 85.5,175.5C 85.615,173.053 86.615,171.053 88.5,169.5 Z"/></g>
<g><path style="opacity:1" fill="#e2dace" d="M 98.5,169.5 C 99.8333,169.5 101.167,169.5 102.5,169.5C 102.5,174.33 100,176.663 95,176.5C 94.5,176.167 94,175.833 93.5,175.5C 95.1897,173.481 96.8564,171.481 98.5,169.5 Z"/></g>
<g><path style="opacity:1" fill="#e2dacd" d="M 108.5,170.5 C 111.342,170.528 112.509,171.862 112,174.5C 109.808,175.399 107.642,176.399 105.5,177.5C 104.54,174.411 105.54,172.078 108.5,170.5 Z"/></g>
</svg>
